<svg width="32" height="32" viewBox="0 0 32 32" fill="none" xmlns="http://www.w3.org/2000/svg">
<rect width="32" height="32" rx="10" fill="#F3F5FF"/>
<path d="M5.97266 13.9923C5.97266 13.1043 6.95136 12.5646 7.70237 13.0385L14.803 17.5192C15.1304 17.7258 15.3289 18.0859 15.3289 18.473V25.6713C15.3289 26.5613 14.3464 27.1006 13.5956 26.6228L6.49498 22.1043C6.16966 21.8972 5.97266 21.5384 5.97266 21.1527L5.97266 13.9923Z" fill="#FF5F85"/>
<path d="M26.0273 13.9923C26.0273 13.1043 25.0486 12.5646 24.2976 13.0385L17.197 17.5192C16.8696 17.7258 16.6711 18.0859 16.6711 18.473V25.6713C16.6711 26.5613 17.6536 27.1006 18.4044 26.6228L25.505 22.1043C25.8303 21.8972 26.0273 21.5384 26.0273 21.1527L26.0273 13.9923Z" fill="#FFC147"/>
<path d="M23.7459 9.31589L16.8557 4.9398C16.3814 4.63858 15.7758 4.63844 15.3014 4.93946L8.42544 9.30221C7.52167 9.87565 7.52934 11.1971 8.43971 11.76L15.4115 16.0708C15.8833 16.3625 16.4803 16.3595 16.9492 16.0629L23.7436 11.7655C24.6425 11.1969 24.6437 9.88613 23.7459 9.31589Z" fill="#4457FF"/>
</svg>
